<?xml version="1.0" encoding="UTF-8"?>
<svg id="Warstwa_1" data-name="Warstwa 1" xmlns="http://www.w3.org/2000/svg" xmlns:xlink="http://www.w3.org/1999/xlink" viewBox="0 0 401.99 308.19">
  <defs>
    <style>
      .cls-1 {
        fill: url(#Gradient_bez_nazwy_63);
      }

      .cls-2 {
        fill: #fff;
      }

      .cls-3 {
        fill: #e22126;
      }

      .cls-4 {
        fill: #153456;
      }

      .cls-5 {
        fill: #0863aa;
      }
    </style>
    <radialGradient id="Gradient_bez_nazwy_63" data-name="Gradient bez nazwy 63" cx="86.78" cy="283.4" fx="86.78" fy="283.4" r="63.45" gradientTransform="translate(-901.86 339.54) rotate(-88.22) scale(1 3.48)" gradientUnits="userSpaceOnUse">
      <stop offset="0" stop-color="#000210"/>
      <stop offset=".21" stop-color="#010515"/>
      <stop offset=".47" stop-color="#051024"/>
      <stop offset=".75" stop-color="#0c223c"/>
      <stop offset=".97" stop-color="#133556"/>
    </radialGradient>
  </defs>
  <path class="cls-2" d="M400.02,172.88l-.04-.12-.05-.12-.38-.94-.05-.12-.05-.11c-4.46-9.71-12.75-16.49-23.97-19.59-5-1.34-11.08-2.01-18.12-2.01-1.35,0-2.76.02-4.21.07h-.03s-.03,0-.03,0h-.14c-.73.04-1.62.06-2.65.06-1.75,0-3.93-.05-6.49-.15h-.06s-.06,0-.06,0h-.41s-.05,0-.05,0h-.05c-5.16,0-8.84.03-11.26.1-6.61.24-12.66,1.17-18.08,2.77l1.56-6.12-7.26-.03h-2.96s-.53-1.07-.53-1.07c-4.65-9.23-11.2-21.27-19.47-35.78-5.71-10.08-10.31-18.31-13.71-24.54,35.63-34,56.45-53.82,63.63-60.57l15.63-14.7L361.12.1h-82.09s-.73.04-.73.04h-.12s-.12.02-.12.02c-4.52.39-8.98,1.99-13.25,4.78-2.05,1.23-4.07,3.08-7.92,7.2l-.07.07-.07.08-.4.46-.07.08-.06.08c-.2.25-2.45,2.91-19.75,19.83l-.02.02-.02.02-1.16,1.16c1.82-6.95,3.17-12.45,4.11-16.66l2.31-10.36,1.54-6.91h-92.1l1.4,6.81,2.1,10.21c1.98,9.66,3.5,16.98,4.52,21.75.45,2.12.82,3.82,1.1,5.07-.63,4.12-1.76,9.31-3.37,15.45-2.67,9.57-4.52,16.21-5.34,19.21-2.08,7.21-5.43,18.94-9.96,34.86-2.6,9.33-4.77,17.47-6.49,24.29h-.2l-1.13,4.19-1.7,6.29c-1.57,5.83-3.82,14.45-6.67,25.61-1.51,5.74-2.82,10.83-3.9,15.17h-18.2c.71-2.59,1.47-5.35,2.29-8.25l.05-.17c3.11-11.74,5.37-20.14,6.71-24.99l2.98-10.77,1.98-7.18H18.87l1.92,7.14,2.89,10.72c2.71,10.06,4.82,17.73,6.28,22.8.51,1.79.95,3.26,1.32,4.47-2.77,11.77-7.16,28.6-13.05,50.05-6.67,24.2-11.49,42.81-14.32,55.32l-2.35,10.38-1.57,6.92h72.14l1.11-4.23,1.66-6.35c1.82-6.94,4.26-16.18,7.28-27.45,2.06-7.41,3.73-13.46,5-18.05,3.13,0,6.44,0,9.9,0,2.65,0,5.39,0,8.23,0-.82,3.33-1.72,6.93-2.7,10.77v.03s-.01.03-.01.03c-3.06,12.54-5.5,21.38-7.27,26.27l-4.12,11.39-2.75,7.6h67.43l-.57,2.83h119.91l.96-4.16c2.9,1.7,6.02,2.95,9.34,3.72l1.26.29.63.15h59.35l.83-.26,1.67-.53c9.08-2.87,16.5-7.79,22.06-14.62l.03-.04.03-.04.18-.23.02-.03.02-.03c3.21-4.2,7.63-12.15,16.14-39.38,2.06-5.96,2.33-12.85.8-21.01,4.48-6.14,7.3-12.1,8.6-18.14,5.29-18.47,6.2-31.5,2.84-41ZM205.48,165.8c-1.43,1.23-3.9,3.41-6.71,6.12,1.56-6.25,2.92-11.9,4.07-16.92l.46-1.99c1.73-5.97,3.87-13.82,6.38-23.35.19-.74.39-1.48.57-2.2.67,1.42,1.36,2.9,2.08,4.42,4.07,8.67,7.57,15.86,10.47,21.45-5.5,3.1-11.3,7.27-17.32,12.45Z"/>
  <path class="cls-4" d="M253.88,82.34c39.97-38.15,63.8-60.84,71.48-68.07h-46.09c-2.28.2-4.62,1.11-7.03,2.73-.65.33-2.31,1.92-4.98,4.79-1.63,2.02-8.56,9.02-20.8,21l-20.9,20.9c-1.69,1.95-6.15,3.84-13.38,5.66,1.5-6.77,3.58-15.85,6.25-27.25,3.38-12.5,5.76-21.81,7.13-27.93h-57.03c4.1,19.99,6.15,29.59,6.15,28.81-.59,5.14-1.95,11.82-4.1,20.02-2.8,10.03-4.59,16.47-5.37,19.34-2.08,7.23-5.4,18.85-9.96,34.86-4.14,14.89-13.25,48.92-16.12,60.12-3.06,11.65-5.21,20.25-6.45,25.78h-47.66c1.43-6.18,3.74-14.94,6.93-26.27,3.12-11.78,5.37-20.15,6.74-25.1h-61.33c5.66,21.03,8.56,31.02,8.69,29.98-2.73,12.11-7.46,30.37-14.16,54.79-6.64,24.09-11.36,42.32-14.16,54.69h43.46c1.82-6.97,4.26-16.18,7.32-27.64,4.56-16.41,7.16-25.88,7.81-28.42,12.24-.06,27.83-.06,46.78,0-1.43,6.9-3.68,16.34-6.74,28.32-3.19,13.09-5.76,22.33-7.71,27.73h43.07c.98-2.99,2.8-9.31,5.47-18.95,2.67-9.77,8.17-29.95,16.5-60.55,6.84-25.2,11.95-45.15,15.33-59.86h-.15c1.82-6.11,4.18-14.69,7.09-25.74,3.19-12.24,5.5-20.96,6.93-26.17h9.47c2.99,5.47,7.26,14.13,12.79,25.98,5.4,11.52,9.7,20.18,12.89,25.98h53.91c-4.56-9.05-10.94-20.77-19.14-35.16-9.44-16.67-15.76-28.12-18.95-34.38Z"/>
  <path class="cls-4" d="M236.17,5.67l-2.31,10.36c-1.4,6.25-3.75,15.46-7.18,28.16-.68,2.91-1.33,5.67-1.93,8.29l15.7-15.7c16.31-15.96,19.55-19.53,20.19-20.32l.4-.46c3.74-4.01,5.36-5.43,6.77-6.26,3.51-2.31,7.12-3.63,10.74-3.94l.73-.03h67.55l-15.63,14.7c-7.36,6.92-29.23,27.74-66.8,63.59,3.53,6.57,8.83,16.1,15.83,28.46,8.22,14.42,14.73,26.38,19.34,35.52l2.1,4.17,6.44.02-2.59,10.18c.15-.1.29-.2.44-.29l.53-.32c6.9-3.76,15.48-5.83,25.58-6.2,2.35-.06,6.07-.1,11.11-.1h.41c2.64.11,4.89.16,6.71.16,1.13,0,2.1-.02,2.9-.06h.14c1.38-.05,2.73-.07,4.02-.07,6.54,0,12.13.61,16.61,1.81,9.58,2.65,16.59,8.34,20.33,16.49l.38.94c2.96,8.37,2,20.36-3,37.74-1.23,5.91-4.25,11.88-9.16,18.14,1.87,8.27,1.83,15.05-.11,20.6-8.31,26.6-12.52,34.13-15.26,37.71l-.18.23c-4.86,5.97-11.37,10.27-19.38,12.8l-1.67.53h-57.83l-1.26-.29c-5.41-1.25-10.14-4.01-14.12-8.17l-1.96,8.47h-108.49l2.71-13.56c.12-.62.33-1.65,23.45-94.23l.12-.45c2.53-8.43,18.8-22.6,20.64-24.19,7.65-6.58,14.78-11.36,21.33-14.32-3.25-5.93-7.64-14.76-13.04-26.28-3.42-7.33-6.37-13.45-8.8-18.29-1.23,4.62-2.72,10.31-4.47,17.02-2.52,9.58-4.66,17.42-6.39,23.36l-.49,2.14c-3.4,14.76-8.58,35.01-15.41,60.18-8.34,30.61-13.84,50.8-16.51,60.56-2.75,9.91-4.57,16.23-5.59,19.34l-1.91,5.87h-61.35l4.12-11.39c1.84-5.09,4.35-14.12,7.45-26.86,1.73-6.76,3.19-12.71,4.4-17.83-5.46-.01-10.6-.02-15.43-.02-5.1,0-9.85,0-14.22.02-1.33,4.85-3.36,12.22-6.14,22.22-3.03,11.35-5.49,20.63-7.29,27.51l-1.66,6.35H7.1l2.35-10.38c2.81-12.42,7.61-30.95,14.26-55.07,6.17-22.47,10.69-39.87,13.46-51.77-.44-1.35-1.01-3.26-1.75-5.82-1.45-5.03-3.55-12.67-6.26-22.7l-2.89-10.72h83.6l-2.98,10.77c-1.35,4.88-3.61,13.29-6.72,25.01l-.03.13c-1.64,5.83-3.06,11-4.23,15.46h30.03c1.25-5.13,2.91-11.63,4.96-19.44,2.84-11.09,5.08-19.7,6.66-25.54l1.7-6.29h.29c1.84-7.55,4.35-17.06,7.51-28.4,4.56-16.03,7.88-27.64,9.97-34.88.79-2.9,2.57-9.31,5.35-19.26,1.81-6.9,3.03-12.66,3.66-17.17-.04-.15-.07-.32-.11-.49-.28-1.23-.68-3.07-1.21-5.53-1.02-4.81-2.54-12.11-4.51-21.71l-2.1-10.21h78.07M254.67,172.55c1.37-1.24,2.37-2.12,2.76-2.45,4.5-3.87,8.82-7.11,12.94-9.73h-12.6l-1.51,5.94c-.51,2-1.04,4.08-1.58,6.24M239.71,2.83h-85.08l.7,3.4,2.1,10.21c1.98,9.66,3.5,16.97,4.52,21.73.52,2.42.92,4.29,1.21,5.55-.63,4.32-1.82,9.81-3.52,16.33-2.68,9.58-4.53,16.25-5.34,19.23-2.06,7.16-5.42,18.89-9.96,34.85-2.86,10.29-5.21,19.13-7,26.35h-.24l-.56,2.1-1.7,6.29c-1.57,5.82-3.81,14.42-6.66,25.58-1.77,6.72-3.25,12.53-4.43,17.31h-24.12c.96-3.59,2.06-7.56,3.27-11.86l.04-.15c3.11-11.73,5.37-20.14,6.71-25l2.98-10.77.99-3.59H22.57l.96,3.57,2.89,10.72c2.71,10.04,4.81,17.7,6.27,22.75.62,2.15,1.12,3.85,1.54,5.16-2.77,11.84-7.23,28.96-13.26,50.9-6.66,24.16-11.47,42.73-14.29,55.2l-2.35,10.38-.78,3.46h66.4l.55-2.12,1.66-6.35c1.82-6.94,4.27-16.2,7.29-27.5,2.42-8.71,4.25-15.33,5.57-20.12,3.76,0,7.79-.01,12.06-.01,3.76,0,7.71,0,11.84.01-1.03,4.28-2.22,9.07-3.56,14.3-3.09,12.66-5.56,21.6-7.37,26.6l-4.12,11.39-1.37,3.8h66.85l-.57,2.83h114.2l.51-2.19.88-3.79c3.53,2.73,7.48,4.61,11.81,5.61l1.26.29.32.07h58.59l.42-.13,1.67-.53c8.54-2.7,15.51-7.31,20.72-13.71l.02-.02.02-.02.18-.23c3.08-4.03,7.34-11.74,15.72-38.57,2.01-5.78,2.17-12.59.47-20.8,4.69-6.2,7.6-12.15,8.87-18.15,5.15-17.92,6.07-30.44,2.92-39.37l-.02-.06-.02-.06-.38-.94-.02-.06-.03-.06c-4.1-8.93-11.76-15.17-22.15-18.04-4.74-1.27-10.58-1.91-17.36-1.91-1.32,0-2.7.02-4.11.07h-.18c-.77.05-1.7.06-2.78.06-1.78,0-4.01-.05-6.6-.15h-.03s-.03,0-.03,0h-.41s-.03,0-.03,0h-.03c-5.06,0-8.83.03-11.18.1-8.42.3-15.86,1.76-22.21,4.34l1.07-4.18.9-3.52h-3.63s-4.7-.03-4.7-.03l-1.32-2.61c-4.63-9.19-11.16-21.18-19.41-35.65-6.32-11.16-11.28-20.06-14.77-26.5,36.59-34.91,57.93-55.23,65.22-62.09l15.63-14.7,5.21-4.9h-74.82s-.73.03-.73.03h-.06s-.06,0-.06,0c-4.07.35-8.1,1.81-11.99,4.36-1.8,1.07-3.67,2.79-7.35,6.73l-.03.04-.03.04-.4.46-.03.04-.03.04c-.48.59-3.33,3.79-19.97,20.08l-8.63,8.63c3.22-11.93,5.44-20.69,6.79-26.73l2.31-10.36.77-3.45h0ZM200.55,152.31c1.72-5.96,3.87-13.81,6.38-23.36.91-3.5,1.76-6.74,2.53-9.69,1.65,3.4,3.46,7.23,5.43,11.44,4.68,9.98,8.61,17.97,11.71,23.82-6.03,3.1-12.5,7.61-19.28,13.43-1.9,1.64-8.5,7.44-13.96,13.75,2.7-10.53,4.95-19.67,6.71-27.33l.48-2.06h0ZM259.97,163.21h1.44c-.6.46-1.2.93-1.8,1.4l.36-1.4h0Z"/>
  <g>
    <path class="cls-3" d="M293.47,163.52s.03,0,.05,0c-4.14,16.28-9.46,37.42-15.95,63.43-8.65,34.54-13.94,55.95-15.86,64.24h-37.39c.18-.9,7.96-32.13,23.34-93.7,1.44-4.8,29.05-33.97,45.81-33.97M293.47,160.68h0c-9.96,0-22.08,8.63-30.5,15.87-8.91,7.66-17,16.69-18.03,20.12l-.02.06-.02.06c-20.69,82.83-23.24,93.22-23.37,93.83l-.68,3.39h43.1l.51-2.19c1.9-8.2,7.23-29.8,15.85-64.19,6.47-25.92,11.83-47.26,15.95-63.42l.9-3.52h-3.63s-.06-.01-.06-.01h0Z"/>
    <path class="cls-3" d="M245.22,163.52s.03,0,.05,0c-4.14,16.28-9.46,37.42-15.95,63.43-8.65,34.54-13.94,55.95-15.86,64.24h-37.39c.18-.9,7.96-32.13,23.34-93.7,1.44-4.8,29.05-33.97,45.81-33.97M245.22,160.68h0c-9.96,0-22.08,8.63-30.5,15.87-8.91,7.66-17,16.69-18.03,20.12l-.02.06-.02.06c-20.69,82.83-23.24,93.22-23.37,93.83l-.68,3.39h43.1l.51-2.19c1.9-8.2,7.23-29.8,15.85-64.19,6.47-25.92,11.83-47.26,15.95-63.42l.9-3.52h-3.63s-.06-.01-.06-.01h0Z"/>
    <path class="cls-3" d="M343.17,166.85c2.78.11,5.15.16,7.13.16,1.32,0,2.45-.02,3.41-.07,1.26-.04,2.48-.06,3.65-.06,5.58,0,10.13.47,13.65,1.41,6.31,1.74,10.63,5.17,12.97,10.27,2.1,5.95.99,16.37-3.33,31.26-1.02,5.41-4.57,11.41-10.63,18.02,2.7,8.77,3.24,15.38,1.62,19.82-5.89,18.86-10.39,30.33-13.51,34.42-3.42,4.2-8.08,7.24-13.97,9.1h-54.78c-4.14-.96-7.66-3.42-10.54-7.39-2.88-4.02-3.93-8.29-3.15-12.79,2.76-17.24,7.84-31.29,15.23-42.17,2.58-1.92,3-5.14,1.26-9.64-.78-4.87-.87-8.2-.27-10,3-10.63,5.23-17.57,6.67-20.81,3.42-7.63,7.9-13.18,13.42-16.67,5.28-2.88,12.1-4.47,20.45-4.78,2.16-.06,5.74-.09,10.72-.09M350.2,197.12h-20.81c-.78,3.91-2.04,9.85-3.78,17.84h20.9c1.68-6.13,2.91-12.07,3.69-17.84M339.38,237.31h-21.35c-2.58,9.67-4.84,17.63-6.76,23.88h21.89c1.86-6.85,3.93-14.81,6.22-23.88M343.22,164.01h-.06c-4.95,0-8.58.03-10.8.09-8.78.32-16.08,2.04-21.73,5.12l-.08.04-.08.05c-5.98,3.77-10.86,9.79-14.5,17.91-1.51,3.4-3.73,10.32-6.79,21.15-.74,2.3-.68,5.89.18,11.28l.05.29.11.28c1.83,4.75.28,5.91-.31,6.34l-.38.29-.27.4c-7.59,11.17-12.87,25.74-15.68,43.31-.91,5.22.32,10.25,3.65,14.89,3.3,4.53,7.4,7.38,12.21,8.5l.32.07h55.54l.42-.13c6.39-2.02,11.55-5.39,15.31-10.01l.03-.03.03-.03c3.35-4.39,7.92-15.91,13.95-35.23,1.73-4.8,1.36-11.36-1.14-20.01,5.77-6.54,9.12-12.46,10.22-18.07,4.51-15.56,5.57-26.31,3.25-32.87l-.04-.12-.05-.12c-2.7-5.88-7.67-9.85-14.8-11.82-3.77-1.01-8.61-1.52-14.41-1.52-1.2,0-2.45.02-3.74.06-.96.05-2.06.07-3.32.07-1.92,0-4.29-.05-7.02-.16h-.06ZM331.7,199.96h15.21c-.65,3.96-1.51,8.04-2.58,12.17h-15.21c1.08-4.97,1.94-9.04,2.58-12.17h0ZM320.21,240.14h15.54c-1.7,6.7-3.29,12.8-4.75,18.21h-15.91c1.52-5.13,3.24-11.23,5.12-18.21h0Z"/>
  </g>
  <g>
    <path class="cls-3" d="M293.47,163.52s.03,0,.05,0c-4.14,16.28-9.46,37.42-15.95,63.43-8.65,34.54-13.94,55.95-15.86,64.24h-37.39c.18-.9,7.96-32.13,23.34-93.7,1.44-4.8,29.05-33.97,45.81-33.97"/>
    <path class="cls-3" d="M245.22,163.52s.03,0,.05,0c-4.14,16.28-9.46,37.42-15.95,63.43-8.65,34.54-13.94,55.95-15.86,64.24h-37.39c.18-.9,7.96-32.13,23.34-93.7,1.44-4.8,29.05-33.97,45.81-33.97"/>
    <path class="cls-3" d="M343.17,166.85c2.78.11,5.15.16,7.13.16,1.32,0,2.45-.02,3.41-.07,1.26-.04,2.48-.06,3.65-.06,5.58,0,10.13.47,13.65,1.41,6.31,1.74,10.63,5.17,12.97,10.27,2.1,5.95.99,16.37-3.33,31.26-1.02,5.41-4.57,11.41-10.63,18.02,2.7,8.77,3.24,15.38,1.62,19.82-5.89,18.86-10.39,30.33-13.51,34.42-3.42,4.2-8.08,7.24-13.97,9.1h-54.78c-4.14-.96-7.66-3.42-10.54-7.39-2.88-4.02-3.93-8.29-3.15-12.79,2.76-17.24,7.84-31.29,15.23-42.17,2.58-1.92,3-5.14,1.26-9.64-.78-4.87-.87-8.2-.27-10,3-10.63,5.23-17.57,6.67-20.81,3.42-7.63,7.9-13.18,13.42-16.67,5.28-2.88,12.1-4.47,20.45-4.78,2.16-.06,5.74-.09,10.72-.09M350.2,197.12h-20.81c-.78,3.91-2.04,9.85-3.78,17.84h20.9c1.68-6.13,2.91-12.07,3.69-17.84M339.38,237.31h-21.35c-2.58,9.67-4.84,17.63-6.76,23.88h21.89c1.86-6.85,3.93-14.81,6.22-23.88"/>
  </g>
  <path class="cls-1" d="M253.88,82.34c39.97-38.15,63.8-60.84,71.48-68.07h-46.09c-2.28.2-4.62,1.11-7.03,2.73-.65.33-2.31,1.92-4.98,4.79-1.63,2.02-8.56,9.02-20.8,21l-20.9,20.9c-1.69,1.95-6.15,3.84-13.38,5.66,1.5-6.77,3.58-15.85,6.25-27.25,3.38-12.5,5.76-21.81,7.13-27.93h-57.03c4.1,19.99,6.15,29.59,6.15,28.81-.59,5.14-1.95,11.82-4.1,20.02-2.8,10.03-4.59,16.47-5.37,19.34-2.08,7.23-5.4,18.85-9.96,34.86-4.14,14.89-13.25,48.92-16.12,60.12-3.06,11.65-5.21,20.25-6.45,25.78h-47.66c1.43-6.18,3.74-14.94,6.93-26.27,3.12-11.78,5.37-20.15,6.74-25.1h-61.33c5.66,21.03,8.56,31.02,8.69,29.98-2.73,12.11-7.46,30.37-14.16,54.79-6.64,24.09-11.36,42.32-14.16,54.69h43.46c1.82-6.97,4.26-16.18,7.32-27.64,4.56-16.41,7.16-25.88,7.81-28.42,12.24-.06,27.83-.06,46.78,0-1.43,6.9-3.68,16.34-6.74,28.32-3.19,13.09-5.76,22.33-7.71,27.73h43.07c.98-2.99,2.8-9.31,5.47-18.95,2.67-9.77,8.17-29.95,16.5-60.55,6.84-25.2,11.95-45.15,15.33-59.86h-.15c1.82-6.11,4.18-14.69,7.09-25.74,3.19-12.24,5.5-20.96,6.93-26.17h9.47c2.99,5.47,7.26,14.13,12.79,25.98,5.4,11.52,9.7,20.18,12.89,25.98h53.91c-4.56-9.05-10.94-20.77-19.14-35.16-9.44-16.67-15.76-28.12-18.95-34.38Z"/>
  <g>
    <path class="cls-5" d="M279.27,14.27c-2.28.2-4.62,1.11-7.03,2.73-.65.33-2.31,1.92-4.98,4.79-1.63,2.02-8.56,9.02-20.8,21l-20.9,20.9c-1.69,1.95-6.15,3.84-13.38,5.66,1.5-6.77,3.58-15.85,6.25-27.25,3.38-12.5,5.76-21.81,7.13-27.93h-57.03c4.1,19.99,6.15,29.59,6.15,28.81-.59,5.14-1.95,11.82-4.1,20.02-2.8,10.03-4.59,16.47-5.37,19.34-2.08,7.23-5.4,18.85-9.96,34.86-4.14,14.89-13.25,48.92-16.12,60.12-1.31,4.97-2.44,9.38-3.42,13.24,17.03-5.01,32.94-10.4,47.79-16.05,2.18-8.59,4.02-16.15,5.53-22.68h-.15c1.82-6.11,4.18-14.69,7.09-25.74,3.19-12.24,5.5-20.96,6.93-26.17h9.47c2.99,5.47,7.26,14.13,12.79,25.98,5.06,10.8,9.16,19.08,12.28,24.85,15.24-7.73,28.96-15.66,41.28-23.58-1.85-3.31-3.82-6.8-5.9-10.45-9.44-16.67-15.76-28.12-18.95-34.38,39.97-38.15,63.8-60.84,71.48-68.07h-46.09Z"/>
    <path class="cls-5" d="M86.96,203.1h-1.94c1.43-6.18,3.74-14.94,6.93-26.27,3.12-11.78,5.37-20.15,6.74-25.1h-61.33c5.66,21.03,8.56,31.02,8.69,29.98-1.75,7.73-4.3,17.97-7.67,30.71,16.98-2.76,33.16-5.89,48.57-9.32Z"/>
  </g>
  <path class="cls-4" d="M218.39,19.84c-1.35,5.48-3.17,12.43-5.43,20.78l-.03.09-.02.09c-2.65,11.3-4.76,20.49-6.27,27.32l-1.98,8.97,8.9-2.24c8.51-2.15,13.5-4.39,16.12-7.27l7.99-7.99,12.77-12.77c16.01-15.66,19.8-19.75,21.08-21.29,2.31-2.47,3.27-3.35,3.6-3.63l.29-.19c1.51-1.02,2.9-1.61,4.14-1.76h31.58c-11.96,11.36-32.19,30.64-61.17,58.3l-3.06,2.92,1.92,3.76c3.21,6.29,9.62,17.93,19.07,34.61,5.82,10.22,10.76,19.15,14.75,26.68h-41.2c-2.93-5.55-6.67-13.16-11.14-22.71-5.56-11.89-9.91-20.74-12.96-26.3l-1.61-2.95h-17.15l-1.15,4.17c-1.45,5.28-3.79,14.11-6.95,26.23-2.87,10.91-5.24,19.51-7.04,25.57,0,0-9.46,38.76-15.22,59.99-8.33,30.6-13.83,50.78-16.5,60.52-1.78,6.42-3.18,11.36-4.2,14.79h-31.1c1.56-5.31,3.36-12.16,5.44-20.69,3.06-11.99,5.35-21.59,6.79-28.54l1.41-6.8-6.94-.02c-9.43-.03-18.16-.05-25.92-.05s-14.8.02-20.9.05l-4.37.02-1.09,4.24c-.64,2.48-3.25,12-7.78,28.31v.03s-.01.03-.01.03c-2.47,9.25-4.56,17.11-6.22,23.43h-31.93c2.85-11.83,7.03-27.76,12.48-47.52,6.62-24.1,11.37-42.46,14.12-54.58l.11-.28.09-.72s-2.13-7.45-6.91-25.01h46.5c-1.26,4.68-2.86,10.68-4.79,17.93-3.2,11.35-5.55,20.26-6.99,26.49l-1.61,6.95h59.33l.99-4.43c1.22-5.44,3.37-14.04,6.41-25.61,2.74-10.7,11.84-44.75,16.08-59.97,4.53-15.94,7.88-27.66,9.96-34.84v-.04s.02-.04.02-.04c.79-2.89,2.59-9.38,5.36-19.3v-.04s.02-.04.02-.04c2.05-7.84,3.43-14.45,4.11-19.67l.18-1.78s-1.38-6.25-4.87-23.14h42.91M225.56,14.17h-57.03c3.95,19.23,6,28.85,6.14,28.85,0,0,0,0,0,0,0-.01,0-.03,0-.04,0,.02,0,.04,0,.04-.59,5.14-1.95,11.8-4.1,19.98-2.8,10.03-4.59,16.47-5.37,19.34-2.08,7.23-5.4,18.85-9.96,34.86-4.14,14.89-13.25,48.92-16.12,60.12-3.06,11.65-5.21,20.25-6.45,25.78h-47.66c1.43-6.18,3.74-14.94,6.93-26.27,3.12-11.78,5.37-20.15,6.74-25.1h-61.33c5.4,20.04,8.28,30.05,8.65,30.05.01,0,.02,0,.03-.02,0-.02,0-.03.01-.05,0,.02,0,.04-.01.05-2.74,12.11-7.45,30.35-14.15,54.74-6.64,24.09-11.36,42.32-14.16,54.69h43.46c1.82-6.97,4.26-16.18,7.32-27.64,4.56-16.41,7.16-25.88,7.81-28.42,6.12-.03,13.08-.05,20.87-.05s16.43.02,25.9.05c-1.43,6.9-3.68,16.34-6.74,28.32-3.19,13.09-5.76,22.33-7.71,27.73h43.07c.98-2.99,2.8-9.31,5.47-18.95,2.67-9.77,8.17-29.95,16.5-60.55,6.84-25.2,11.95-45.15,15.33-59.86h-.15c1.82-6.11,4.18-14.69,7.09-25.74,3.19-12.24,5.5-20.96,6.93-26.17h9.47c2.99,5.47,7.26,14.13,12.79,25.98,5.4,11.52,9.7,20.18,12.89,25.98h53.91c-4.56-9.05-10.94-20.77-19.14-35.16-9.44-16.67-15.76-28.12-18.95-34.38,39.97-38.15,63.8-60.84,71.48-68.07h-46.09c-2.28.2-4.62,1.11-7.03,2.73-.65.33-2.31,1.92-4.98,4.79-1.63,2.02-8.56,9.02-20.8,21l-20.9,20.9c-1.69,1.95-6.15,3.84-13.38,5.66,1.5-6.77,3.58-15.85,6.25-27.25,3.38-12.5,5.76-21.81,7.13-27.93h0Z"/>
</svg>