<?xml version="1.0" standalone="no"?>
<!DOCTYPE svg PUBLIC "-//W3C//DTD SVG 20010904//EN"
 "http://www.w3.org/TR/2001/REC-SVG-20010904/DTD/svg10.dtd">
<svg version="1.0" xmlns="http://www.w3.org/2000/svg"
 width="1200.000000pt" height="1200.000000pt" viewBox="0 0 1200.000000 1200.000000"
 preserveAspectRatio="xMidYMid meet">

<g transform="translate(0.000000,1200.000000) scale(0.100000,-0.100000)"
fill="#000000" stroke="none">
<path d="M3980 6000 c0 -918 2 -1040 15 -1040 13 0 15 122 15 1040 0 918 -2
1040 -15 1040 -13 0 -15 -122 -15 -1040z"/>
<path d="M2242 6714 c-30 -15 -66 -43 -85 -67 -17 -22 -58 -66 -89 -96 -54
-52 -88 -109 -88 -146 0 -8 -18 -33 -39 -54 -63 -63 -76 -95 -76 -187 -1 -79
-2 -82 -38 -125 -51 -59 -64 -115 -72 -301 -11 -275 17 -353 174 -469 53 -39
117 -82 142 -94 159 -81 300 -86 402 -13 29 21 40 22 145 19 145 -4 152 1 152
103 l0 71 61 23 60 24 54 -51 c30 -28 60 -51 68 -51 7 0 55 42 106 94 104 107
103 101 28 175 l-45 43 24 52 c13 28 24 57 24 64 0 8 21 12 74 12 51 0 77 4
85 14 8 9 11 56 9 142 l-3 129 -78 5 -78 5 -28 67 -28 66 44 44 c75 73 76 68
-23 169 -55 56 -95 89 -109 89 -12 0 -41 -21 -69 -49 l-47 -48 -65 26 -64 26
0 71 c0 41 -5 75 -12 82 -7 7 -30 12 -53 12 -37 0 -42 3 -50 32 -7 23 -22 40
-50 55 -121 68 -267 83 -363 37z m251 -65 c34 -11 68 -25 75 -31 9 -8 12 -135
12 -573 0 -534 -1 -565 -20 -619 -75 -220 -200 -288 -392 -216 -72 27 -187
102 -255 166 -76 73 -86 115 -80 352 4 169 7 192 27 231 16 33 24 41 31 30 6
-10 31 -14 88 -14 61 0 84 -4 97 -16 15 -16 13 -21 -24 -70 -55 -74 -104 -176
-97 -200 4 -12 15 -19 30 -19 20 0 31 14 65 78 22 44 61 99 86 124 49 49 132
88 188 88 41 0 69 20 64 46 -3 17 -12 19 -73 18 -48 0 -85 -7 -116 -21 l-45
-20 -27 23 c-35 30 -101 48 -150 40 -24 -4 -36 -3 -32 4 3 5 0 36 -6 69 -16
74 -3 125 44 175 l33 35 60 -15 c77 -21 147 -14 179 16 43 41 46 132 4 145
-30 10 -49 -12 -49 -56 0 -44 -19 -55 -78 -44 -64 11 -72 15 -72 40 0 27 51
91 80 100 10 3 30 25 44 49 14 24 47 58 73 75 40 27 56 31 110 31 38 0 89 -8
126 -21z m197 -192 c0 -75 10 -89 70 -106 25 -7 64 -24 87 -37 23 -13 47 -24
54 -24 8 0 36 23 64 50 l51 50 52 -53 52 -53 -50 -49 c-54 -53 -59 -68 -34
-104 9 -13 27 -53 40 -89 12 -35 28 -69 36 -73 7 -5 41 -9 76 -9 l62 0 0 -75
0 -75 -69 0 c-76 0 -82 -4 -101 -65 -7 -22 -23 -59 -36 -82 -13 -23 -24 -47
-24 -54 0 -8 23 -36 50 -64 l50 -51 -55 -54 -55 -54 -53 52 -53 52 -76 -35
c-42 -19 -83 -35 -92 -35 -32 0 -46 -30 -46 -101 l0 -69 -54 0 c-30 0 -58 4
-61 10 -3 5 3 27 14 49 29 56 71 206 71 252 0 34 3 39 23 39 35 0 119 44 155
80 57 59 82 123 82 209 0 86 -18 135 -69 193 -39 45 -104 84 -154 93 l-37 7 0
169 c0 144 2 169 15 169 12 0 15 -14 15 -63z m17 -359 c112 -49 174 -184 131
-285 -31 -71 -113 -142 -165 -143 -10 0 -13 51 -13 220 0 133 4 220 10 220 5
0 22 -5 37 -12z"/>
<path d="M2483 6434 c-10 -5 -13 -99 -13 -425 l0 -420 -33 -72 c-57 -122 -137
-171 -240 -146 -54 13 -87 41 -206 177 -47 54 -69 72 -85 70 -14 -2 -22 -11
-24 -28 -2 -19 20 -50 91 -130 131 -148 204 -184 321 -160 31 6 77 26 103 44
40 26 56 48 93 122 l45 89 0 440 c0 433 0 440 -20 442 -11 1 -26 -1 -32 -3z"/>
<path d="M8372 6178 c3 -388 3 -393 25 -424 34 -48 86 -69 168 -68 68 1 136
15 164 33 21 13 -5 175 -26 167 -42 -16 -61 -16 -81 1 -21 18 -22 25 -29 351
l-6 332 -109 0 -109 0 3 -392z"/>
<path d="M8800 6475 l0 -95 110 0 110 0 0 95 0 95 -110 0 -110 0 0 -95z"/>
<path d="M5029 6532 c-161 -43 -278 -173 -309 -341 -33 -181 75 -382 247 -464
64 -30 74 -32 184 -32 113 0 117 1 191 37 74 37 158 112 158 142 0 12 -160
116 -179 116 -4 0 -17 -13 -29 -30 -57 -77 -185 -89 -262 -23 -53 44 -75 98
-75 183 0 89 24 143 81 186 74 57 221 37 262 -35 9 -17 21 -30 26 -28 27 9
165 114 166 127 0 29 -114 126 -175 149 -82 31 -201 36 -286 13z"/>
<path d="M9187 6523 c-4 -3 -7 -48 -7 -100 l0 -93 -35 0 -35 0 0 -84 0 -85 38
-3 37 -3 5 -185 c5 -171 7 -187 27 -216 33 -45 83 -66 162 -66 62 0 158 21
190 41 12 8 11 22 -5 96 -17 78 -21 86 -39 80 -103 -30 -117 -13 -113 141 l3
109 63 3 62 3 0 84 0 85 -65 0 -65 0 0 100 0 100 -108 0 c-60 0 -112 -3 -115
-7z"/>
<path d="M7197 6326 c-129 -36 -207 -185 -147 -283 23 -38 101 -80 207 -112
97 -29 126 -58 81 -82 -29 -16 -110 3 -184 42 -31 17 -57 29 -59 27 -2 -2 -20
-31 -40 -66 -43 -74 -44 -72 58 -122 111 -54 269 -61 357 -15 41 21 88 80 100
126 18 66 4 118 -44 165 -35 33 -63 47 -162 80 -90 30 -120 44 -122 58 -9 46
63 48 152 3 l66 -34 40 62 c22 34 40 66 40 71 0 14 -64 54 -112 71 -61 21
-174 26 -231 9z"/>
<path d="M7830 6329 c-52 -9 -180 -61 -180 -74 0 -5 59 -126 65 -133 1 -1 26
10 55 25 41 21 72 29 126 31 67 4 75 2 98 -21 31 -31 37 -84 9 -72 -40 17
-160 17 -214 2 -251 -74 -209 -401 51 -401 73 0 132 24 188 77 30 29 32 29 32
10 0 -59 80 -97 178 -86 l52 6 0 97 c0 87 -2 98 -19 103 -16 4 -19 18 -23 128
-6 138 -19 184 -70 237 -62 63 -216 95 -348 71z m182 -365 c10 -6 10 -55 0
-70 -28 -41 -118 -59 -156 -31 -35 26 -19 88 29 108 19 8 110 3 127 -7z"/>
<path d="M5690 6312 c-94 -31 -122 -50 -114 -75 9 -31 53 -117 60 -117 2 0 28
12 56 26 61 31 154 42 197 24 20 -8 34 -23 42 -47 6 -19 9 -36 6 -39 -2 -3
-26 0 -51 7 -90 23 -224 -7 -284 -64 -57 -53 -78 -149 -48 -220 16 -38 59 -83
99 -103 77 -41 201 -22 274 41 46 39 53 42 53 21 0 -8 11 -28 25 -44 30 -35
80 -47 155 -37 l50 7 0 93 c0 85 -2 94 -22 107 -21 14 -23 25 -28 145 -5 123
-7 132 -35 179 -24 37 -45 56 -90 79 -54 28 -68 30 -174 32 -90 2 -128 -1
-171 -15z m225 -347 c19 -4 25 -12 25 -33 0 -37 -31 -69 -79 -82 -49 -13 -87
0 -103 34 -15 34 10 72 55 85 30 8 45 8 102 -4z"/>
<path d="M6284 6315 c-3 -8 -4 -119 -2 -247 3 -225 4 -235 28 -283 14 -27 40
-60 58 -72 84 -55 243 -32 328 49 l32 30 7 -30 c12 -59 76 -86 173 -75 l52 6
0 96 c0 85 -2 98 -20 109 -18 11 -20 25 -22 219 l-3 208 -112 3 -113 3 0 -200
0 -199 -31 -26 c-23 -19 -42 -26 -75 -26 -69 0 -74 18 -74 255 l0 195 -110 0
c-88 0 -112 -3 -116 -15z"/>
<path d="M8800 6015 l0 -315 117 0 116 0 -6 113 c-4 61 -7 203 -7 315 l0 202
-110 0 -110 0 0 -315z"/>
<path d="M9594 6293 c8 -21 59 -163 116 -316 104 -287 111 -317 74 -348 -18
-15 -65 -17 -111 -5 l-33 8 0 -97 c0 -113 -4 -110 120 -110 67 0 93 5 125 22
55 29 118 99 138 154 21 55 217 708 217 720 0 5 -47 9 -103 9 l-104 0 -47
-212 c-26 -117 -48 -214 -50 -215 -1 -2 -29 94 -62 212 l-59 215 -117 0 -117
0 13 -37z"/>
</g>
</svg>
